<mxfile host="app.diagrams.net" modified="2022-05-18T06:28:09.644Z" agent="5.0 (Windows NT 10.0; Win64; x64) AppleWebKit/537.36 (KHTML, like Gecko) Chrome/101.0.4951.64 Safari/537.36 Edg/101.0.1210.47" etag="d-UdA_LTRV9t2GxxRUFF" version="17.4.6" type="github">
  <diagram id="vFCYnXXAYOeYRhPe5y3t" name="Page-1">
    <mxGraphModel dx="1038" dy="579" grid="1" gridSize="10" guides="1" tooltips="1" connect="1" arrows="1" fold="1" page="1" pageScale="1" pageWidth="827" pageHeight="1169" math="0" shadow="0">
      <root>
        <mxCell id="0" />
        <mxCell id="1" parent="0" />
        <mxCell id="7DDG80BWA_sWPKjzdyd6-37" value="&lt;b&gt;&lt;font color=&quot;#000000&quot;&gt;Qemu&lt;/font&gt;&lt;/b&gt;" style="sketch=0;points=[[0,0,0],[0.25,0,0],[0.5,0,0],[0.75,0,0],[1,0,0],[1,0.25,0],[1,0.5,0],[1,0.75,0],[1,1,0],[0.75,1,0],[0.5,1,0],[0.25,1,0],[0,1,0],[0,0.75,0],[0,0.5,0],[0,0.25,0]];rounded=1;absoluteArcSize=1;arcSize=2;html=1;strokeColor=none;gradientColor=none;shadow=0;dashed=0;fontSize=12;fontColor=#9E9E9E;align=left;verticalAlign=top;spacing=10;spacingTop=-4;fillColor=#F1F8E9;" vertex="1" parent="1">
          <mxGeometry x="40" y="210" width="650" height="460" as="geometry" />
        </mxCell>
        <mxCell id="7DDG80BWA_sWPKjzdyd6-16" value="&lt;b&gt;&lt;font color=&quot;#000000&quot;&gt;Source VM&lt;/font&gt;&lt;/b&gt;" style="sketch=0;points=[[0,0,0],[0.25,0,0],[0.5,0,0],[0.75,0,0],[1,0,0],[1,0.25,0],[1,0.5,0],[1,0.75,0],[1,1,0],[0.75,1,0],[0.5,1,0],[0.25,1,0],[0,1,0],[0,0.75,0],[0,0.5,0],[0,0.25,0]];rounded=1;absoluteArcSize=1;arcSize=2;html=1;strokeColor=#d79b00;shadow=0;dashed=0;fontSize=12;align=left;verticalAlign=top;spacing=10;spacingTop=-4;fillColor=#ffe6cc;" vertex="1" parent="1">
          <mxGeometry x="60" y="250" width="520" height="400" as="geometry" />
        </mxCell>
        <mxCell id="7DDG80BWA_sWPKjzdyd6-13" value="&lt;font style=&quot;font-size: 12px&quot;&gt;&lt;b&gt;return path thread&lt;/b&gt;&lt;/font&gt;" style="text;html=1;strokeColor=none;fillColor=none;align=center;verticalAlign=middle;whiteSpace=wrap;rounded=0;" vertex="1" parent="1">
          <mxGeometry x="50" y="300" width="160" height="20" as="geometry" />
        </mxCell>
        <mxCell id="7DDG80BWA_sWPKjzdyd6-14" value="" style="curved=1;endArrow=classic;html=1;rounded=0;fontSize=18;strokeWidth=3;fillColor=#fff2cc;strokeColor=#d6b656;" edge="1" parent="1">
          <mxGeometry width="50" height="50" relative="1" as="geometry">
            <mxPoint x="170" y="335" as="sourcePoint" />
            <mxPoint x="220" y="285" as="targetPoint" />
            <Array as="points">
              <mxPoint x="220" y="335" />
              <mxPoint x="170" y="285" />
            </Array>
          </mxGeometry>
        </mxCell>
        <mxCell id="7DDG80BWA_sWPKjzdyd6-15" value="destination VM" style="verticalLabelPosition=bottom;html=1;verticalAlign=top;align=center;strokeColor=none;fillColor=#00BEF2;shape=mxgraph.azure.computer;pointerEvents=1;" vertex="1" parent="1">
          <mxGeometry x="610" y="257.5" width="50" height="45" as="geometry" />
        </mxCell>
        <mxCell id="7DDG80BWA_sWPKjzdyd6-17" value="" style="shape=message;html=1;whiteSpace=wrap;html=1;outlineConnect=0;fontSize=12;" vertex="1" parent="1">
          <mxGeometry x="402.5" y="277.5" width="37.5" height="25" as="geometry" />
        </mxCell>
        <mxCell id="7DDG80BWA_sWPKjzdyd6-23" value="" style="html=1;shadow=0;dashed=0;align=center;verticalAlign=middle;shape=mxgraph.arrows2.arrow;dy=0.6;dx=40;flipH=1;notch=0;fontSize=12;" vertex="1" parent="1">
          <mxGeometry x="470" y="280" width="120" height="20" as="geometry" />
        </mxCell>
        <mxCell id="7DDG80BWA_sWPKjzdyd6-24" value="" style="html=1;shadow=0;dashed=0;align=center;verticalAlign=middle;shape=mxgraph.arrows2.arrow;dy=0.6;dx=40;flipH=1;notch=0;fontSize=12;" vertex="1" parent="1">
          <mxGeometry x="243.12" y="280" width="120" height="20" as="geometry" />
        </mxCell>
        <mxCell id="7DDG80BWA_sWPKjzdyd6-25" value="post-copy request" style="text;html=1;strokeColor=none;fillColor=none;align=center;verticalAlign=middle;whiteSpace=wrap;rounded=0;fontSize=12;" vertex="1" parent="1">
          <mxGeometry x="363.12" y="302.5" width="116.25" height="17.5" as="geometry" />
        </mxCell>
        <mxCell id="7DDG80BWA_sWPKjzdyd6-26" value="&lt;b&gt;&lt;font color=&quot;#000000&quot;&gt;Ram&lt;/font&gt;&lt;/b&gt;" style="sketch=0;points=[[0,0,0],[0.25,0,0],[0.5,0,0],[0.75,0,0],[1,0,0],[1,0.25,0],[1,0.5,0],[1,0.75,0],[1,1,0],[0.75,1,0],[0.5,1,0],[0.25,1,0],[0,1,0],[0,0.75,0],[0,0.5,0],[0,0.25,0]];rounded=1;absoluteArcSize=1;arcSize=2;html=1;strokeColor=none;gradientColor=none;shadow=0;dashed=0;fontSize=12;fontColor=#9E9E9E;align=left;verticalAlign=top;spacing=10;spacingTop=-4;fillColor=#F3E5F5;" vertex="1" parent="1">
          <mxGeometry x="80" y="350" width="480" height="280" as="geometry" />
        </mxCell>
        <mxCell id="7DDG80BWA_sWPKjzdyd6-30" style="edgeStyle=orthogonalEdgeStyle;rounded=0;orthogonalLoop=1;jettySize=auto;html=1;exitX=1;exitY=0.5;exitDx=0;exitDy=0;exitPerimeter=0;entryX=0;entryY=0.5;entryDx=0;entryDy=0;entryPerimeter=0;fontSize=12;fontColor=#000000;strokeWidth=1;" edge="1" parent="1" source="7DDG80BWA_sWPKjzdyd6-27" target="7DDG80BWA_sWPKjzdyd6-28">
          <mxGeometry relative="1" as="geometry" />
        </mxCell>
        <mxCell id="7DDG80BWA_sWPKjzdyd6-27" value="" style="outlineConnect=0;dashed=0;verticalLabelPosition=bottom;verticalAlign=top;align=center;html=1;shape=mxgraph.aws3.queue;fillColor=#D9A741;gradientColor=none;fontSize=12;fontColor=#000000;" vertex="1" parent="1">
          <mxGeometry x="150" y="390" width="60" height="30" as="geometry" />
        </mxCell>
        <mxCell id="7DDG80BWA_sWPKjzdyd6-31" style="edgeStyle=orthogonalEdgeStyle;rounded=0;orthogonalLoop=1;jettySize=auto;html=1;exitX=1;exitY=0.5;exitDx=0;exitDy=0;exitPerimeter=0;entryX=0;entryY=0.5;entryDx=0;entryDy=0;entryPerimeter=0;fontSize=12;fontColor=#000000;strokeWidth=1;" edge="1" parent="1" source="7DDG80BWA_sWPKjzdyd6-28" target="7DDG80BWA_sWPKjzdyd6-29">
          <mxGeometry relative="1" as="geometry" />
        </mxCell>
        <mxCell id="7DDG80BWA_sWPKjzdyd6-28" value="&lt;b&gt;post-copy request queue&lt;/b&gt;" style="outlineConnect=0;dashed=0;verticalLabelPosition=bottom;verticalAlign=top;align=center;html=1;shape=mxgraph.aws3.queue;fillColor=#D9A741;gradientColor=none;fontSize=12;fontColor=#000000;" vertex="1" parent="1">
          <mxGeometry x="230" y="390" width="60" height="30" as="geometry" />
        </mxCell>
        <mxCell id="7DDG80BWA_sWPKjzdyd6-33" style="edgeStyle=orthogonalEdgeStyle;rounded=0;orthogonalLoop=1;jettySize=auto;html=1;exitX=1;exitY=0.5;exitDx=0;exitDy=0;exitPerimeter=0;entryX=0;entryY=0.5;entryDx=0;entryDy=0;entryPerimeter=0;fontSize=12;fontColor=#000000;strokeWidth=1;" edge="1" parent="1" source="7DDG80BWA_sWPKjzdyd6-29">
          <mxGeometry relative="1" as="geometry">
            <mxPoint x="390" y="405" as="targetPoint" />
          </mxGeometry>
        </mxCell>
        <mxCell id="7DDG80BWA_sWPKjzdyd6-29" value="" style="outlineConnect=0;dashed=0;verticalLabelPosition=bottom;verticalAlign=top;align=center;html=1;shape=mxgraph.aws3.queue;fillColor=#D9A741;gradientColor=none;fontSize=12;fontColor=#000000;" vertex="1" parent="1">
          <mxGeometry x="310" y="390" width="60" height="30" as="geometry" />
        </mxCell>
        <mxCell id="7DDG80BWA_sWPKjzdyd6-34" value="&lt;font style=&quot;font-size: 18px&quot;&gt;......&lt;/font&gt;" style="text;html=1;strokeColor=none;fillColor=none;align=center;verticalAlign=middle;whiteSpace=wrap;rounded=0;fontSize=12;fontColor=#000000;" vertex="1" parent="1">
          <mxGeometry x="380" y="390" width="60" height="30" as="geometry" />
        </mxCell>
        <mxCell id="7DDG80BWA_sWPKjzdyd6-35" value="" style="curved=1;endArrow=classic;html=1;rounded=0;fontSize=18;fontColor=#000000;strokeWidth=1;entryX=0;entryY=0;entryDx=0;entryDy=0;entryPerimeter=0;" edge="1" parent="1" target="7DDG80BWA_sWPKjzdyd6-27">
          <mxGeometry width="50" height="50" relative="1" as="geometry">
            <mxPoint x="150" y="340" as="sourcePoint" />
            <mxPoint x="180" y="390" as="targetPoint" />
            <Array as="points">
              <mxPoint x="140" y="370" />
            </Array>
          </mxGeometry>
        </mxCell>
        <mxCell id="7DDG80BWA_sWPKjzdyd6-36" value="&lt;font style=&quot;font-size: 12px&quot;&gt;append requests&lt;/font&gt;" style="text;html=1;strokeColor=none;fillColor=none;align=center;verticalAlign=middle;whiteSpace=wrap;rounded=0;fontSize=18;fontColor=#000000;" vertex="1" parent="1">
          <mxGeometry x="150" y="350" width="110" height="30" as="geometry" />
        </mxCell>
        <mxCell id="7DDG80BWA_sWPKjzdyd6-47" style="edgeStyle=orthogonalEdgeStyle;rounded=0;orthogonalLoop=1;jettySize=auto;html=1;exitX=1;exitY=0.5;exitDx=0;exitDy=0;exitPerimeter=0;entryX=0;entryY=0.5;entryDx=0;entryDy=0;fontSize=12;fontColor=#000000;strokeWidth=1;" edge="1" parent="1" source="7DDG80BWA_sWPKjzdyd6-38" target="7DDG80BWA_sWPKjzdyd6-41">
          <mxGeometry relative="1" as="geometry" />
        </mxCell>
        <mxCell id="7DDG80BWA_sWPKjzdyd6-48" style="edgeStyle=orthogonalEdgeStyle;rounded=0;orthogonalLoop=1;jettySize=auto;html=1;exitX=1;exitY=0.5;exitDx=0;exitDy=0;exitPerimeter=0;entryX=0;entryY=0.5;entryDx=0;entryDy=0;fontSize=12;fontColor=#000000;strokeWidth=1;" edge="1" parent="1" source="7DDG80BWA_sWPKjzdyd6-38" target="7DDG80BWA_sWPKjzdyd6-39">
          <mxGeometry relative="1" as="geometry" />
        </mxCell>
        <mxCell id="7DDG80BWA_sWPKjzdyd6-38" value="ram_find_and_save_page" style="points=[[0.25,0,0],[0.5,0,0],[0.75,0,0],[1,0.25,0],[1,0.5,0],[1,0.75,0],[0.75,1,0],[0.5,1,0],[0.25,1,0],[0,0.75,0],[0,0.5,0],[0,0.25,0]];shape=mxgraph.bpmn.task;whiteSpace=wrap;rectStyle=rounded;size=10;taskMarker=abstract;isLoopStandard=1;isLoopSub=1;rounded=1;fontSize=12;fontColor=#000000;fontStyle=1" vertex="1" parent="1">
          <mxGeometry x="95" y="510" width="170" height="60" as="geometry" />
        </mxCell>
        <mxCell id="7DDG80BWA_sWPKjzdyd6-39" value="&lt;p style=&quot;margin: 0px ; margin-top: 6px ; text-align: center&quot;&gt;&lt;b&gt;Requested pages&lt;/b&gt;&lt;/p&gt;&lt;hr&gt;&lt;p style=&quot;margin: 0px ; margin-left: 8px&quot;&gt;+ unqueue_page&lt;span&gt;: RAMBlock*&lt;/span&gt;&lt;/p&gt;" style="align=left;overflow=fill;html=1;dropTarget=0;fontColor=#000000;" vertex="1" parent="1">
          <mxGeometry x="300" y="470" width="170" height="60" as="geometry" />
        </mxCell>
        <mxCell id="7DDG80BWA_sWPKjzdyd6-40" value="" style="shape=component;jettyWidth=8;jettyHeight=4;fontColor=#000000;" vertex="1" parent="7DDG80BWA_sWPKjzdyd6-39">
          <mxGeometry x="1" width="20" height="20" relative="1" as="geometry">
            <mxPoint x="-24" y="4" as="offset" />
          </mxGeometry>
        </mxCell>
        <mxCell id="7DDG80BWA_sWPKjzdyd6-41" value="&lt;p style=&quot;margin: 0px ; margin-top: 6px ; text-align: center&quot;&gt;&lt;b&gt;Active push&lt;/b&gt;&lt;/p&gt;&lt;hr&gt;&lt;p style=&quot;margin: 0px ; margin-left: 8px&quot;&gt;+ find_dirty_block: bool&lt;br&gt;&lt;/p&gt;" style="align=left;overflow=fill;html=1;dropTarget=0;fontColor=#000000;" vertex="1" parent="1">
          <mxGeometry x="300" y="550" width="170" height="60" as="geometry" />
        </mxCell>
        <mxCell id="7DDG80BWA_sWPKjzdyd6-42" value="" style="shape=component;jettyWidth=8;jettyHeight=4;fontColor=#000000;" vertex="1" parent="7DDG80BWA_sWPKjzdyd6-41">
          <mxGeometry x="1" width="20" height="20" relative="1" as="geometry">
            <mxPoint x="-24" y="4" as="offset" />
          </mxGeometry>
        </mxCell>
        <mxCell id="7DDG80BWA_sWPKjzdyd6-45" value="" style="curved=1;endArrow=classic;html=1;rounded=0;fontSize=12;fontColor=#000000;strokeWidth=1;" edge="1" parent="1">
          <mxGeometry width="50" height="50" relative="1" as="geometry">
            <mxPoint x="370" y="420" as="sourcePoint" />
            <mxPoint x="390" y="470" as="targetPoint" />
            <Array as="points">
              <mxPoint x="370" y="440" />
            </Array>
          </mxGeometry>
        </mxCell>
        <mxCell id="7DDG80BWA_sWPKjzdyd6-46" value="&lt;font style=&quot;font-size: 12px&quot;&gt;unqueue requests&lt;/font&gt;" style="text;html=1;strokeColor=none;fillColor=none;align=center;verticalAlign=middle;whiteSpace=wrap;rounded=0;fontSize=18;fontColor=#000000;" vertex="1" parent="1">
          <mxGeometry x="380" y="425" width="110" height="30" as="geometry" />
        </mxCell>
      </root>
    </mxGraphModel>
  </diagram>
</mxfile>
